<?xml version="1.0" encoding="UTF-8"?>
<svg width="40px" height="33px" viewBox="0 0 40 33" version="1.1" xmlns="http://www.w3.org/2000/svg" xmlns:xlink="http://www.w3.org/1999/xlink">
    <!-- Generator: Sketch 60.1 (88133) - https://sketch.com -->
    <title>Group</title>
    <desc>Created with Sketch.</desc>
    <g id="FEED-VIEW" stroke="none" stroke-width="1" fill="none" fill-rule="evenodd">
        <g id="Feed-view-1st-time-user-" transform="translate(-1124.000000, -541.000000)">
            <g id="PROMPT-BANNER" transform="translate(-84.000000, 103.000000)">
                <g id="Group" transform="translate(1209.000000, 439.000000)">
                    <circle id="Oval" cx="6" cy="9" r="2"></circle>
                    <path d="M18.9997857,8 C14.0306183,8 10,12.0291919 10,17.0008572 C10,21.9708081 14.0306183,26 18.9997857,26 C23.9702388,26 28,21.9708081 28,17.0008572 C28,12.0291919 23.9698102,8 18.9997857,8 Z M18.9997857,22.5048336 C15.9604295,22.5048336 13.4949168,20.0404305 13.4949168,17.0008572 C13.4949168,13.9599981 15.960001,11.495595 18.9997857,11.495595 C22.039999,11.495595 24.5046547,13.9599981 24.5046547,17.0008572 C24.5046547,20.0404305 22.039999,22.5048336 18.9997857,22.5048336 Z" id="Shape"></path>
                    <path d="M34.2,2.72815078 L25.7146,2.72815078 L24.377,0.693067665 C24.1270444,0.310552569 23.5540889,0 23.1027333,0 L14.8981111,0 C14.4459111,0 13.8729556,0.310552569 13.6213111,0.693067665 L12.2845556,2.72815078 L3.80084444,2.72815078 C1.70535556,2.72815078 0,4.45696481 0,6.58242943 L0,27.1435796 C0,29.2703293 1.70535556,31 3.80084444,31 L34.2,31 C36.2954889,31 38,29.2699009 38,27.1435796 L38,6.58242943 C38,4.45696481 36.2954889,2.72815078 34.2,2.72815078 Z M5.89633333,10.2563734 C4.71411111,10.2563734 3.75566667,9.28402261 3.75566667,8.08464717 C3.75566667,6.88527172 4.71411111,5.91292092 5.89633333,5.91292092 C7.07855556,5.91292092 8.037,6.88527172 8.037,8.08464717 C8.037,9.28402261 7.07855556,10.2563734 5.89633333,10.2563734 Z M19,25.8589628 C14.1043333,25.8589628 10.1333333,21.8320598 10.1333333,16.8649321 C10.1333333,11.896091 14.1043333,7.86918793 19,7.86918793 C23.8969333,7.86918793 27.8670889,11.896091 27.8670889,16.8649321 C27.8670889,21.8320598 23.8965111,25.8589628 19,25.8589628 Z" id="Shape" stroke="#000000" stroke-width="2" fill-rule="nonzero"></path>
                </g>
            </g>
        </g>
    </g>
</svg>