<?xml version="1.0" encoding="UTF-8"?>
<svg width="38px" height="38px" viewBox="0 0 38 38" version="1.1" xmlns="http://www.w3.org/2000/svg" xmlns:xlink="http://www.w3.org/1999/xlink">
    <!-- Generator: Sketch 60.1 (88133) - https://sketch.com -->
    <title>EDIT COVER PHOTO</title>
    <desc>Created with Sketch.</desc>
    <g id="FEED-VIEW" stroke="none" stroke-width="1" fill="none" fill-rule="evenodd">
        <g id="Create-profile" transform="translate(-1330.000000, -159.000000)" fill="#FFFFFF">
            <g id="BANNER" transform="translate(-28.000000, 96.000000)">
                <path d="M1390.22427,63 C1389.83707,62.9954883 1389.46152,63.0753525 1389.10411,63.2836048 C1389.10065,63.2857642 1389.09426,63.295006 1389.09063,63.2970789 C1388.97711,63.3630631 1388.86831,63.4449916 1388.78023,63.5265055 C1388.76273,63.5416638 1388.74248,63.5504738 1388.72624,63.5669709 L1361.59943,90.7068126 C1361.46929,90.8369758 1361.38328,91.010541 1361.3565,91.1926571 L1360.76268,95.1603869 C1360.66164,95.838237 1359.97394,96.8455114 1359.27813,97.6975746 C1358.93004,98.1238221 1358.58951,98.5122818 1358.33341,98.9121858 C1358.20536,99.1121377 1358.08816,99.3075984 1358.023,99.6004438 C1357.95785,99.8933325 1358.02331,100.383539 1358.31991,100.680098 C1358.6167,100.976874 1359.10681,101.042085 1359.39959,100.977003 C1359.69237,100.911965 1359.90125,100.794585 1360.10138,100.666624 C1360.50163,100.410703 1360.88925,100.083179 1361.31601,99.7354006 C1362.16953,99.0398441 1363.16267,98.3363413 1363.83975,98.2374018 L1363.85322,98.2374018 L1367.80753,97.657066 C1367.98964,97.6302905 1368.16322,97.5443069 1368.29338,97.4141437 L1394.7589,70.9491076 L1395.4337,70.2743236 C1396.14146,69.5665886 1396.09569,68.5294856 1395.78459,67.6291705 C1395.47349,66.7288596 1394.86642,65.8203089 1394.03012,64.9840173 C1393.25606,64.2099699 1392.40741,63.6260669 1391.57386,63.2970573 C1391.13104,63.1222699 1390.67101,63.0055938 1390.22427,63 L1390.22427,63 Z M1389.80589,71.151586 C1389.97857,71.1464468 1390.15982,71.1933038 1390.30524,71.2865428 C1390.45067,71.3797947 1390.56178,71.5188412 1390.62915,71.6779175 C1390.69651,71.8369981 1390.71736,72.021429 1390.68313,72.1907533 C1390.64888,72.360082 1390.56407,72.5156904 1390.4402,72.6361107 L1375.90509,87.1709878 C1375.82547,87.2523073 1375.72647,87.3155319 1375.62167,87.3599273 C1375.51688,87.4043227 1375.41158,87.4267795 1375.29777,87.4273897 C1375.18396,87.427816 1375.06565,87.4031998 1374.96037,87.3599273 C1374.8551,87.3166547 1374.75745,87.2514436 1374.67696,87.1709878 C1374.59647,87.0905319 1374.53131,86.9928448 1374.48802,86.8875569 C1374.44472,86.7823122 1374.41996,86.6774994 1374.42053,86.5636606 C1374.42097,86.449865 1374.45716,86.3311031 1374.50151,86.2262902 C1374.54587,86.1214774 1374.60915,86.0225378 1374.69045,85.9428594 L1389.21207,71.4080039 C1389.28931,71.3285197 1389.38056,71.2637275 1389.48199,71.2190644 C1389.58342,71.1744012 1389.69511,71.154894 1389.80589,71.151586 L1389.80589,71.151586 Z" id="EDIT-COVER-PHOTO"></path>
            </g>
        </g>
    </g>
</svg>