<?xml version="1.0" encoding="UTF-8"?>
<svg width="38px" height="34px" viewBox="0 0 38 34" version="1.1" xmlns="http://www.w3.org/2000/svg" xmlns:xlink="http://www.w3.org/1999/xlink">
    <!-- Generator: Sketch 60.1 (88133) - https://sketch.com -->
    <title>Group 3</title>
    <desc>Created with Sketch.</desc>
    <defs>
        <polygon id="path-1" points="5.39371007e-05 -0.0001 37.995 -0.0001 37.995 33.96735 5.39371007e-05 33.96735"></polygon>
    </defs>
    <g id="Symbols" stroke="none" stroke-width="1" fill="none" fill-rule="evenodd">
        <g id="LIKE" transform="translate(-19.000000, -20.000000)">
            <g id="Group-3">
                <g transform="translate(19.000000, 20.000000)">
                    <g id="Clip-2"></g>
                    <path d="M9.87508486,2 C11.8744636,2 13.8843416,2.82452431 15.4372474,4.47357294 L18.2805749,7.50224101 C18.6535523,7.90156448 19.3615094,7.90156448 19.7339868,7.50224101 L22.5618152,4.48930233 C25.6676268,1.19069767 30.5648297,1.19069767 33.6706413,4.48930233 C36.7764529,7.78790698 36.7764529,13.1145877 33.6706413,16.4131924 C28.7809379,21.6064271 23.8892347,26.8067653 18.9995313,32 L4.32842134,16.397463 C1.2251096,13.0947992 1.22260975,7.77217759 4.32842134,4.47357294 C5.88132714,2.82452431 7.87570615,2 9.87508486,2 L9.87508486,2 Z M9.87669467,-4.4408921e-16 C7.33887384,-4.4408921e-16 4.81505478,1.00404459 2.89131158,3.01896543 C-0.955674753,7.04830665 -0.966676144,13.5154719 2.87580962,17.5483164 L18.2687556,33.704218 C18.6413027,34.098594 19.3493922,34.098594 19.7214392,33.704218 C24.8565884,28.3265915 29.9797361,22.9419582 35.1143852,17.5638312 C38.9618716,13.53449 38.9618716,7.06382144 35.1143852,3.03448022 C31.2668988,-0.994860992 24.9756035,-0.995361469 21.1281171,3.03448022 L19.0028484,5.23958237 L16.8775797,3.01896543 C14.8038176,0.837886187 12.2339927,-0.00992203831 9.87669467,-4.4408921e-16 Z" id="Fill-1" fill="#FFFFFF"></path>
                </g>
            </g>
        </g>
    </g>
</svg>