<?xml version="1.0" encoding="UTF-8"?>
<svg width="23px" height="23px" viewBox="0 0 23 23" version="1.1" xmlns="http://www.w3.org/2000/svg" xmlns:xlink="http://www.w3.org/1999/xlink">
    <!-- Generator: Sketch 60.1 (88133) - https://sketch.com -->
    <title>Fill 1</title>
    <desc>Created with Sketch.</desc>
    <g id="FEED-VIEW" stroke="none" stroke-width="1" fill="none" fill-rule="evenodd">
        <g id="POST-UPDATE" transform="translate(-1161.000000, -698.000000)" fill="#FFFFFF">
            <g id="Group-21" transform="translate(1147.000000, 685.000000)">
                <g id="Group-20">
                    <g id="Group-3" transform="translate(0.000000, 6.578947)">
                        <path d="M20.0999449,20.3988602 L22.7678644,23.0591648 L16.2360616,26.8672676 L20.0999449,20.3988602 Z M20.6519283,16.8664676 L26.2632988,22.4632456 L26.0333058,25.0322584 L23.7798338,22.7843722 L20.2839394,19.2978547 L18.0300074,17.0499685 L20.6519283,16.8664676 Z M27.4132641,10.4439355 L32.6575658,15.6737116 L26.7232849,21.6374914 L21.4799033,16.4077153 L27.4132641,10.4439355 Z M27.1832711,7.73729691 C27.3677255,7.59967122 27.5977185,7.50792076 27.781713,7.50792076 C27.9657074,7.50792076 28.1957005,7.59967122 28.3796949,7.73729691 L35.3714838,14.7103318 C35.6930141,15.0314584 35.6930141,15.5819611 35.3714838,15.9030878 C35.0494935,16.2242144 34.4975102,16.2242144 34.1755199,15.9030878 L33.6230766,15.352585 L27.7357144,9.48055563 L27.1832711,8.93005288 C27.0457352,8.79242719 26.953278,8.56305104 26.953278,8.3336749 C26.953278,8.10429875 27.0457352,7.92079783 27.1832711,7.73729691 L27.1832711,7.73729691 Z M14.9481005,28.6105263 C15.0400977,28.6105263 15.1320949,28.6105263 15.1780935,28.5641923 L23.4118449,23.7018768 L26.0797644,26.3626401 C26.1717616,26.4543905 26.2632988,26.499807 26.4017547,26.499807 C26.4477533,26.499807 26.4932919,26.499807 26.5397505,26.4543905 C26.7232849,26.4085153 26.8157422,26.2250144 26.8617408,26.0410547 L27.1832711,22.4173703 L33.3475449,16.3618401 L33.577538,16.5912162 C33.8995283,16.9123428 34.3595144,17.0958437 34.8195005,17.0958437 C35.2794866,17.0958437 35.7394727,16.9123428 36.061463,16.5912162 C36.7514422,15.9030878 36.7514422,14.8020822 36.061463,14.1139538 L29.0232155,7.0950437 C28.3332363,6.40691526 27.2297297,6.40691526 26.5397505,7.0950437 C26.2177602,7.41617031 26.0333058,7.8749226 26.0333058,8.3336749 C26.0333058,8.79242719 26.2177602,9.25117948 26.5397505,9.57230609 L26.7697435,9.80168224 L20.6519283,15.948963 L17.018038,16.2700896 C16.8340435,16.2700896 16.6960477,16.4077153 16.6040505,16.5912162 C16.5580519,16.7747171 16.6040505,16.958218 16.6960477,17.0499685 L19.3639671,19.7107318 L14.534113,27.9223979 C14.4421158,28.10544 14.4421158,28.3348162 14.6261102,28.4729006 C14.7181074,28.5641923 14.8101046,28.6105263 14.9481005,28.6105263 L14.9481005,28.6105263 Z" id="Fill-1"></path>
                    </g>
                </g>
            </g>
        </g>
    </g>
</svg>