<?xml version="1.0" encoding="UTF-8"?>
<svg width="27px" height="28px" viewBox="0 0 27 28" version="1.1" xmlns="http://www.w3.org/2000/svg" xmlns:xlink="http://www.w3.org/1999/xlink">
    <!-- Generator: Sketch 60.1 (88133) - https://sketch.com -->
    <title>Search</title>
    <desc>Created with Sketch.</desc>
    <g id="design" stroke="none" stroke-width="1" fill="none" fill-rule="evenodd">
        <g id="Landing-page---desktop-" transform="translate(-1239.000000, -35.000000)" fill="#FFFFFF" stroke="#FFFFFF">
            <g id="NAV" transform="translate(70.000000, 24.000000)">
                <g id="Group-4" transform="translate(1157.000000, 0.000000)">
                    <g id="Group-3">
                        <path d="M37.5414688,35.3529544 L30.6967623,28.2313935 C31.9236856,26.490987 32.5809437,24.3868771 32.5717797,22.2288156 C32.5483693,16.5955593 28.1674923,12.0326398 22.7511526,12.0001035 C20.1591288,11.9879065 17.6700721,13.0543741 15.838474,14.9619276 C14.0068759,16.8694811 12.9848839,19.4596633 13.000169,22.1554549 C13.0235794,27.7892241 17.4048562,32.3525593 22.821689,32.3850957 C24.9051194,32.3944871 26.9356139,31.7029329 28.6101357,30.4136426 L28.6172786,30.4080709 L35.4557351,37.5240601 C35.8254687,37.9274762 36.3763969,38.0907696 36.8950608,37.9506716 C37.4137248,37.8105737 37.8186273,37.3890979 37.9528877,36.8495465 C38.087148,36.309995 37.9296699,35.7371471 37.5414688,35.3529544 L37.5414688,35.3529544 Z M22.8145461,30.3458536 C18.4813166,30.3199285 14.9763521,26.6696511 14.9573301,22.1628839 C14.9456346,20.0065298 15.7632954,17.9348002 17.228298,16.4088702 C18.6933007,14.8829401 20.6840519,14.0294597 22.7574027,14.038417 C27.0906322,14.0643421 30.5955966,17.7146195 30.6146186,22.2213867 C30.6263141,24.3777407 29.8086533,26.4494703 28.3436507,27.9754004 C26.8786481,29.5013304 24.8878968,30.3548109 22.8145461,30.3458536 Z" id="Search"></path>
                    </g>
                </g>
            </g>
        </g>
    </g>
</svg>