<?xml version="1.0" encoding="UTF-8"?>
<svg width="43px" height="33px" viewBox="0 0 43 33" version="1.1" xmlns="http://www.w3.org/2000/svg" xmlns:xlink="http://www.w3.org/1999/xlink">
    <!-- Generator: Sketch 60.1 (88133) - https://sketch.com -->
    <title>video camera</title>
    <desc>Created with Sketch.</desc>
    <g id="FEED-VIEW" stroke="none" stroke-width="1" fill="none" fill-rule="evenodd">
        <g id="Feed-view-1st-time-user-" transform="translate(-1239.000000, -540.000000)" stroke="#000000" stroke-width="2">
            <g id="PROMPT-BANNER" transform="translate(-84.000000, 103.000000)">
                <g id="video-camera" transform="translate(1324.000000, 438.000000)">
                    <path d="M23.6251969,13 L2.37480315,13 C1.06456693,13 0,14.0218341 0,15.279476 L0,28.720524 C0,29.9781659 1.06456693,31 2.37480315,31 L23.6251969,31 C24.9354331,31 26,29.9781659 26,28.720524 L26,15.279476 C26,14.0218341 24.9354331,13 23.6251969,13 Z" id="Path"></path>
                    <circle id="Oval" cx="7" cy="5" r="5"></circle>
                    <circle id="Oval" cx="19" cy="5" r="5"></circle>
                    <path d="M39.0234375,14.2219561 L32.8789062,18.0461117 L30.8164063,18.0461117 C30.34375,18.0461117 30,18.4046263 30,18.8029759 L30,24.1806947 C30,24.6188792 30.3867188,24.9375589 30.8164063,24.9375589 L32.8789062,24.9375589 L39.0234375,28.8015494 C39.8828125,29.3194039 41,28.7617145 41,27.8455105 L41,15.177995 C41,14.2219561 39.8828125,13.6642667 39.0234375,14.2219561 Z" id="Path"></path>
                </g>
            </g>
        </g>
    </g>
</svg>