<?xml version="1.0" encoding="UTF-8"?>
<svg width="62px" height="62px" viewBox="0 0 62 62" version="1.1" xmlns="http://www.w3.org/2000/svg" xmlns:xlink="http://www.w3.org/1999/xlink">
    <!-- Generator: Sketch 60.1 (88133) - https://sketch.com -->
    <title>ICON</title>
    <desc>Created with Sketch.</desc>
    <g id="FEED-VIEW" stroke="none" stroke-width="1" fill="none" fill-rule="evenodd">
        <g id="Create-profile" transform="translate(-163.000000, -2081.000000)">
            <g id="MODULE-3-" transform="translate(70.000000, 1822.000000)">
                <g id="ICON" transform="translate(94.000000, 260.000000)">
                    <path d="M37.963086,10.6445851 C37.840086,10.3205851 37.558086,10.0835851 37.217086,10.0185851 C36.877086,9.9515851 36.527086,10.0685851 36.292086,10.3235851 L27.374086,20.0285851 L14.512086,24.9285851 C12.765086,25.5945851 11.382086,26.9005851 10.616086,28.6065851 C9.85108598,30.3135851 9.79708598,32.2145851 10.462086,33.9615851 C11.489086,36.6585851 14.118086,38.4715851 17.004086,38.4715851 C17.855086,38.4715851 18.693086,38.3175851 19.495086,38.0115851 L20.691086,37.5565851 L28.244086,46.7875851 C28.438086,47.0245851 28.724086,47.1545851 29.018086,47.1545851 C29.138086,47.1545851 29.258086,47.1335851 29.374086,47.0895851 L34.981086,44.9535851 C35.281086,44.8395851 35.508086,44.5875851 35.590086,44.2765851 C35.673086,43.9655851 35.602086,43.6335851 35.399086,43.3855851 L28.267086,34.6685851 L32.357086,33.1105851 L45.472086,34.4225851 C45.817086,34.4555851 46.155086,34.3115851 46.366086,34.0345851 C46.577086,33.7605851 46.630086,33.3945851 46.507086,33.0705851 L37.963086,10.6445851 Z M32.322086,31.0985851 C32.167086,31.0845851 32.011086,31.1035851 31.866086,31.1595851 L26.259086,33.2955851 C25.959086,33.4095851 25.732086,33.6615851 25.649086,33.9725851 C25.566086,34.2835851 25.638086,34.6155851 25.841086,34.8635851 L32.972086,43.5805851 L29.335086,44.9655851 L21.782086,35.7345851 C21.588086,35.4975851 21.302086,35.3675851 21.008086,35.3675851 C20.888086,35.3675851 20.768086,35.3885851 20.652086,35.4325851 L18.783086,36.1445851 C18.210086,36.3635851 17.611086,36.4735851 17.004086,36.4735851 C14.942086,36.4735851 13.064086,35.1785851 12.331086,33.2515851 C11.855086,32.0035851 11.894086,30.6455851 12.441086,29.4265851 C12.987086,28.2085851 13.975086,27.2755851 15.223086,26.8005851 L28.306086,21.8165851 C28.451086,21.7615851 28.581086,21.6725851 28.686086,21.5585851 L36.669086,12.8705851 L44.061086,32.2735851 L32.322086,31.0985851 Z" id="Shape" fill="#000000" fill-rule="nonzero"></path>
                    <path d="M22.254086,28.4005851 L18.516086,29.8245851 C18.000086,30.0205851 17.741086,30.5985851 17.937086,31.1145851 C18.089086,31.5135851 18.469086,31.7595851 18.872086,31.7595851 C18.991086,31.7595851 19.111086,31.7385851 19.228086,31.6945851 L22.966086,30.2705851 C23.482086,30.0745851 23.741086,29.4965851 23.545086,28.9805851 C23.349086,28.4625851 22.770086,28.2055851 22.254086,28.4005851 Z" id="Path" fill="#000000"></path>
                    <circle id="Oval" stroke="#000000" stroke-width="2" cx="30" cy="30" r="30"></circle>
                </g>
            </g>
        </g>
    </g>
</svg>