<?xml version="1.0" encoding="UTF-8"?>
<svg width="62px" height="62px" viewBox="0 0 62 62" version="1.1" xmlns="http://www.w3.org/2000/svg" xmlns:xlink="http://www.w3.org/1999/xlink">
    <!-- Generator: Sketch 60.1 (88133) - https://sketch.com -->
    <title>VALUE ICON</title>
    <desc>Created with Sketch.</desc>
    <g id="FEED-VIEW" stroke="none" stroke-width="1" fill="none" fill-rule="evenodd">
        <g id="Create-profile" transform="translate(-164.000000, -962.000000)" stroke="#000000">
            <g id="-MODULE-1-" transform="translate(70.000000, 703.000000)">
                <g id="VALUE-ICON" transform="translate(95.000000, 260.000000)">
                    <path d="M21.51,24.304392 L17.2585714,24.304392 C16.0894286,24.304392 15.1328571,25.2609634 15.1328571,26.4301063 L15.1328571,31.744392 C15.1328571,32.9135349 16.0894286,33.8701063 17.2585714,33.8701063 L17.2585714,41.3101063 C17.2585714,41.8946777 17.7368571,42.3729634 18.3214286,42.3729634 L20.4471429,42.3729634 C21.0317143,42.3729634 21.51,41.8946777 21.51,41.3101063 L21.51,33.8701063 C22.6791429,33.8701063 23.6357143,32.9135349 23.6357143,31.744392 L23.6357143,26.4301063 C23.6357143,25.2609634 22.6791429,24.304392 21.51,24.304392 Z" id="Stroke-1" stroke-width="1.75"></path>
                    <path d="M31.5214286,26.4301063 L29.3957143,26.4301063 C28.2265714,26.4301063 27.27,27.3866777 27.27,28.5558206 L27.27,33.8701063 C27.27,34.6502434 27.70152,35.3294091 28.3328571,35.6992834 L28.3328571,41.3101063 C28.3328571,41.8946777 28.8111429,42.3729634 29.3957143,42.3729634 L31.5214286,42.3729634 C32.106,42.3729634 32.5842857,41.8946777 32.5842857,41.3101063 L32.5842857,35.6992834 C33.2156229,35.3283463 33.6471429,34.6513063 33.6471429,33.8701063 L33.6471429,28.5558206 C33.6471429,27.3866777 32.6905714,26.4301063 31.5214286,26.4301063 Z" id="Stroke-3" stroke-width="1.75"></path>
                    <path d="M19.3842857,17.1329634 C20.55768,17.1329634 21.51,18.0852834 21.51,19.2586777 C21.51,20.432072 20.55768,21.384392 19.3842857,21.384392 C18.2108914,21.384392 17.2585714,20.432072 17.2585714,19.2586777 C17.2585714,18.0852834 18.2108914,17.1329634 19.3842857,17.1329634 Z" id="Stroke-5" stroke-width="1.75"></path>
                    <path d="M30.4585714,19.2586777 C31.6319657,19.2586777 32.5842857,20.2109977 32.5842857,21.384392 C32.5842857,22.5577863 31.6319657,23.5101063 30.4585714,23.5101063 C29.2851771,23.5101063 28.3328571,22.5577863 28.3328571,21.384392 C28.3328571,20.2109977 29.2851771,19.2586777 30.4585714,19.2586777 Z" id="Stroke-7" stroke-width="1.75"></path>
                    <path d="M40.6757143,21.384392 C41.8491086,21.384392 42.8014286,22.336712 42.8014286,23.5101063 C42.8014286,24.6835006 41.8491086,25.6358206 40.6757143,25.6358206 C39.50232,25.6358206 38.55,24.6835006 38.55,23.5101063 C38.55,22.336712 39.50232,21.384392 40.6757143,21.384392 Z" id="Stroke-9" stroke-width="1.75"></path>
                    <path d="M44.9271429,33.3386777 C44.9271429,30.6974777 43.0235657,28.5558206 40.6757143,28.5558206 C38.3278629,28.5558206 36.4242857,30.6974777 36.4242857,33.3386777 C36.4242857,35.1040834 37.2852,36.6303463 38.55,37.458312 L38.55,41.3101063 C38.55,41.8946777 39.0282857,42.3729634 39.6128571,42.3729634 L41.7385714,42.3729634 C42.3231429,42.3729634 42.8014286,41.8946777 42.8014286,41.3101063 L42.8014286,37.458312 C44.0662286,36.6303463 44.9271429,35.1040834 44.9271429,33.3386777 Z" id="Stroke-11" stroke-width="1.75"></path>
                    <circle id="Oval" stroke-width="2" cx="30" cy="30" r="30"></circle>
                </g>
            </g>
        </g>
    </g>
</svg>