<?xml version="1.0" encoding="UTF-8"?>
<svg width="62px" height="62px" viewBox="0 0 62 62" version="1.1" xmlns="http://www.w3.org/2000/svg" xmlns:xlink="http://www.w3.org/1999/xlink">
    <!-- Generator: Sketch 60.1 (88133) - https://sketch.com -->
    <title>ICON</title>
    <desc>Created with Sketch.</desc>
    <g id="FEED-VIEW" stroke="none" stroke-width="1" fill="none" fill-rule="evenodd">
        <g id="Create-profile" transform="translate(-163.000000, -1522.000000)" stroke="#000000" stroke-width="2">
            <g id="MODULE-2-" transform="translate(70.000000, 1263.000000)">
                <g id="ICON" transform="translate(94.000000, 260.000000)">
                    <circle id="Oval" cx="30" cy="30" r="30"></circle>
                    <path d="M52,26.8657163 L52,24.9868353 C44.4253264,22.4024206 40.5689101,22.3015445 34.2353907,24.8349523 L34.0565824,24.9064756 L26.3417223,24.9064756 L26.1877722,24.8551589 C19.2131821,22.5302955 15.1041068,22.5803549 8,24.9876086 L8,26.8657163 L9.11945203,27.238867 L9.10377373,27.9757473 C8.94618178,35.3825688 12.6157878,39.834222 17.4229558,39.7426569 C22.2049825,39.6515707 26.175373,35.1208773 26.5927758,27.866415 L25.0034829,25.4824756 L34.9965171,25.4824756 L33.4071763,27.8664868 C33.8229246,35.1325883 37.7233872,39.6519712 42.4392272,39.7426604 C47.1887366,39.8339971 50.896,35.3804664 50.896,27.9544756 L50.896,27.2337163 L52,26.8657163 Z" id="Stroke-1"></path>
                </g>
            </g>
        </g>
    </g>
</svg>