<?xml version="1.0" encoding="UTF-8"?>
<svg width="62px" height="62px" viewBox="0 0 62 62" version="1.1" xmlns="http://www.w3.org/2000/svg" xmlns:xlink="http://www.w3.org/1999/xlink">
    <!-- Generator: Sketch 60.1 (88133) - https://sketch.com -->
    <title>ICON</title>
    <desc>Created with Sketch.</desc>
    <defs>
        <polygon id="path-1" points="0.307727273 0.224225589 24.6212121 0.224225589 24.6212121 13.6363636 0.307727273 13.6363636"></polygon>
    </defs>
    <g id="FEED-VIEW" stroke="none" stroke-width="1" fill="none" fill-rule="evenodd">
        <g id="Create-profile" transform="translate(-163.000000, -2641.000000)">
            <g id="MODULE-4-" transform="translate(70.000000, 2382.000000)">
                <g id="ICON" transform="translate(94.000000, 260.000000)">
                    <g id="Group-3" transform="translate(17.000000, 34.969697)">
                        <mask id="mask-2" fill="white">
                            <use xlink:href="#path-1"></use>
                        </mask>
                        <g id="Clip-2"></g>
                        <path d="M0.307727273,1.47969697 C0.307727273,0.869090909 0.802424242,0.374393939 1.4130303,0.374393939 C2.02363636,0.374393939 2.51833333,0.869090909 2.51833333,1.47969697 C2.51833333,6.97287879 6.97136364,11.4259091 12.4645455,11.4259091 C17.7509091,11.4259091 22.0743939,7.30166667 22.3918182,2.09484848 C22.4387879,1.33045455 21.9842424,0.520606061 21.9009091,0.374393939 C21.7092424,0.0365151515 23.0819697,0.374393939 23.5160606,0.374393939 C24.1259091,0.374393939 24.6213636,0.378939394 24.6213636,1.47969697 C24.6213636,8.19333333 19.1781818,13.6365152 12.4645455,13.6365152 C5.75090909,13.6365152 0.307727273,8.19333333 0.307727273,1.47969697" id="Fill-1" fill="#000000" mask="url(#mask-2)"></path>
                    </g>
                    <path d="M36.7332576,36.4283333 C37.0468939,36.9715152 36.8612879,37.6669697 36.3173485,37.9806061 C35.7734091,38.2942424 35.0787121,38.1078788 34.7650758,37.564697 L31.7347727,32.3162121 C30.7931061,30.6851515 31.3514394,28.600303 32.9825,27.6593939 C34.612803,26.7177273 36.6984091,27.2760606 37.6393182,28.9071212 L41.427197,35.4677273 C41.7408333,36.0109091 41.5552273,36.7063636 41.0112879,37.02 C40.4681061,37.3336364 39.7734091,37.1472727 39.4597727,36.6040909 L35.6718939,30.0434848 C35.3582576,29.4995455 34.662803,29.3131818 34.1188636,29.6268182 C33.5756818,29.9412121 33.3893182,30.6359091 33.7029545,31.1798485 L36.7332576,36.4283333 Z" id="Fill-4" fill="#000000"></path>
                    <path d="M32.9090909,29.5150758 C32.9090909,30.1431061 32.4,30.6514394 31.7727273,30.6514394 C31.1454545,30.6514394 30.6363636,30.1431061 30.6363636,29.5150758 L30.6363636,18.1514394 C30.6363636,16.2688636 32.1628788,14.7423485 34.0454545,14.7423485 C35.9280303,14.7423485 37.4545455,16.2688636 37.4545455,18.1514394 L37.4545455,28.7575 C37.4545455,29.3855303 36.9454545,29.8938636 36.3181818,29.8938636 C35.6909091,29.8938636 35.1818182,29.3855303 35.1818182,28.7575 L35.1818182,18.1514394 C35.1818182,17.5241667 34.6727273,17.0150758 34.0454545,17.0150758 C33.4181818,17.0150758 32.9090909,17.5241667 32.9090909,18.1514394 L32.9090909,29.5150758 Z" id="Fill-6" fill="#000000"></path>
                    <path d="M28.3636364,27.772803 C28.3636364,28.4000758 27.855303,28.9091667 27.2272727,28.9091667 C26.5992424,28.9091667 26.0909091,28.4000758 26.0909091,27.772803 L26.0909091,16.4091667 C26.0909091,14.5265909 27.6174242,13.0000758 29.5,13.0000758 C31.3825758,13.0000758 32.9090909,14.5265909 32.9090909,16.4091667 L32.9090909,27.0152273 C32.9090909,27.6425 32.4,28.1515909 31.7727273,28.1515909 C31.1454545,28.1515909 30.6363636,27.6425 30.6363636,27.0152273 L30.6363636,16.4091667 C30.6363636,15.7811364 30.1272727,15.272803 29.5,15.272803 C28.8719697,15.272803 28.3636364,15.7811364 28.3636364,16.4091667 L28.3636364,27.772803 Z" id="Fill-8" fill="#000000"></path>
                    <path d="M23.8181818,30.0455303 C23.8181818,30.672803 23.3098485,31.1818939 22.6818182,31.1818939 C22.0537879,31.1818939 21.5454545,30.672803 21.5454545,30.0455303 L21.5454545,17.9243182 C21.5454545,16.0417424 23.0719697,14.5152273 24.9545455,14.5152273 C26.8371212,14.5152273 28.3636364,16.0417424 28.3636364,17.9243182 L28.3636364,29.2879545 C28.3636364,29.9152273 27.855303,30.4243182 27.2272727,30.4243182 C26.5992424,30.4243182 26.0909091,29.9152273 26.0909091,29.2879545 L26.0909091,17.9243182 C26.0909091,17.2962879 25.5825758,16.7879545 24.9545455,16.7879545 C24.3265152,16.7879545 23.8181818,17.2962879 23.8181818,17.9243182 L23.8181818,30.0455303 Z" id="Fill-10" fill="#000000"></path>
                    <path d="M20.4090909,38.3788636 C22.2916667,38.3788636 23.8181818,36.8523485 23.8181818,34.9697727 L23.8181818,29.9508333 C23.8181818,28.5053788 22.2189394,27.772803 20.4090909,27.772803 C18.5992424,27.772803 17,28.5053788 17,29.9508333 L17,34.9697727 C17,36.8523485 18.5265152,38.3788636 20.4090909,38.3788636 M21.5454545,34.9697727 C21.5454545,35.5970455 21.0371212,36.1061364 20.4090909,36.1061364 C19.7810606,36.1061364 19.2727273,35.5970455 19.2727273,34.9697727 L19.2727273,30.2485606 C19.5409091,30.1250758 19.9537879,30.0455303 20.4090909,30.0455303 C20.8643939,30.0455303 21.2772727,30.1250758 21.5424242,30.2470455 C21.5431818,30.247803 21.544697,31.8212879 21.5454545,34.9697727" id="Fill-12" fill="#000000"></path>
                    <circle id="Oval" stroke="#000000" stroke-width="2" cx="30" cy="30" r="30"></circle>
                </g>
            </g>
        </g>
    </g>
</svg>