<?xml version="1.0" encoding="UTF-8"?>
<svg width="152px" height="32px" viewBox="0 0 152 32" version="1.1" xmlns="http://www.w3.org/2000/svg" xmlns:xlink="http://www.w3.org/1999/xlink">
    <!-- Generator: Sketch 60.1 (88133) - https://sketch.com -->
    <title>logo-big</title>
    <desc>Created with Sketch.</desc>
    <g id="SPLASH-PAGE" stroke="none" stroke-width="1" fill="none" fill-rule="evenodd">
        <g id="Desktop-HD" transform="translate(-416.000000, -557.000000)">
            <g id="logo-big" transform="translate(416.000000, 557.000000)">
                <text id="C" fill="#FFFFFF" font-family="Helvetica" font-size="24.79" font-weight="normal">
                    <tspan x="28.57" y="30.23">C</tspan>
                </text>
                <text id="ul" fill="#FFFFFF" font-family="Helvetica" font-size="24.79" font-weight="normal">
                    <tspan x="46.22" y="30.23">ul</tspan>
                </text>
                <text id="t" fill="#FFFFFF" font-family="Helvetica" font-size="24.79" font-weight="normal">
                    <tspan x="66.1" y="30.23">t</tspan>
                </text>
                <text id="u" fill="#FFFFFF" font-family="Helvetica" font-size="24.79" font-weight="normal">
                    <tspan x="74.79" y="30.23">u</tspan>
                </text>
                <text id="r" fill="#FFFFFF" font-family="Helvetica" font-size="24.79" font-weight="normal">
                    <tspan x="88.58" y="30.23">r</tspan>
                </text>
                <text id="e" fill="#FFFFFF" font-family="Helvetica" font-size="24.79" font-weight="normal">
                    <tspan x="97.56" y="30.23">e</tspan>
                </text>
                <text id="B" fill="#FFFFFF" font-family="Helvetica" font-size="24.79" font-weight="normal">
                    <tspan x="110.42" y="30.23">B</tspan>
                </text>
                <text id="ee" fill="#FFFFFF" font-family="Helvetica" font-size="24.79" font-weight="normal">
                    <tspan x="124.85" y="30.23">ee</tspan>
                </text>
                <path d="M24.1,19.58 C23.9625934,18.7478076 23.7066596,17.9395956 23.34,17.18 L23.25,17 L23.2,16.91 C22.88675,16.3449687 22.5182833,15.8123668 22.1,15.32 C20.6345374,13.4420344 18.468919,12.2401162 16.1,11.99 L15.45,11.99 C15.0171859,11.9599996 14.5828141,11.9599996 14.15,11.99 C13.4241177,12.013996 12.7030942,12.1179575 12,12.3 C11.3907178,12.4009193 10.8184382,12.6594794 10.34,13.05 C10.6,12.57 10.83,12.05 11.04,11.57 C10.94,11.86 10.83,12.14 10.71,12.42 C12.44,8.85 13.26,5.56 11.27,2.75 C10.8755246,2.18011807 10.3888626,1.67993766 9.83,1.27 C9.75,1.22 9.69,1.15 9.61,1.09 C8.29593024,0.328642693 6.74930417,0.0726494129 5.26,0.37 C3.95597474,0.570822375 2.78418239,1.27893002 2,2.34 C0.839084703,3.95137701 0.228875263,5.89422775 0.26,7.88 L0.26,23.71 C0.26,25 -0.27,31 8,31 L14.67,31 C15.23615,30.998117 15.8012576,30.9513034 16.36,30.86 C17.1128782,30.7279942 17.8455883,30.4994424 18.54,30.18 L18.59,30.18 C19.5552168,29.7304007 20.4402682,29.1257282 21.21,28.39 C23.7418558,26.2227096 24.8561416,22.825873 24.1,19.58 Z M3,22.07 L3,8.07 C3.01041508,7.18897772 3.15888419,6.31503451 3.44,5.48 C3.79758546,3.95795542 5.26416552,2.96572915 6.81,3.2 C8.35475633,3.50228391 9.43926219,4.89847847 9.35,6.47 C9.28763361,8.00310608 8.90258543,9.50581626 8.22,10.88 C6.6,14.45 4.91,17.98 3.22,21.53 C3.16755543,21.7178198 3.09373963,21.8990041 3,22.07 Z M4,27.13 C3.77,26.94 3.83,26.8 3.83,26.8 C4.64,25 7.11,19.61 8.5,17.8 C8.86144456,17.3601757 9.26319032,16.9550821 9.7,16.59 C11.0620023,15.3776971 12.8167179,14.6992544 14.64,14.68 L8.61,28 C7.60490675,27.9804436 6.60243343,27.890221 5.61,27.73 L5.61,27.73 L5.26,27.65 L5.17,27.65 C4.96064773,27.6079144 4.75622194,27.5442408 4.56,27.46 L4.5,27.46 L4.26,27.32 M14.87,28.32 L11.61,28.32 L17.71,15.32 C19.5826211,16.2251549 20.9199911,17.9589198 21.32,20 C22.1114357,23.7073804 19.7547663,27.3564168 16.05,28.16 C15.6576033,28.2394492 15.2598383,28.2895876 14.86,28.31 L14.87,28.32 Z" id="Shape" stroke="#FED006" stroke-width="0.5" fill="#FED006" fill-rule="nonzero"></path>
            </g>
        </g>
    </g>
</svg>